{
  "source": "C:\\Users\\Peter\\Desktop\\stuff\\MIUN\\quantitative_research\\video_compression\\videos\\BVI-HD\\RockWater_1920x1080_30fps.mp4",
  "output": "C:\\Users\\Peter\\Desktop\\stuff\\MIUN\\quantitative_research\\video_compression\\compressed_videos\\BVI-HD\\vp9\\2\\RockWater_1920x1080_30fps_vp9.webm",
  "codec": "vp9",
  "ok": "Input #0, mov,mp4,m4a,3gp,3g2,mj2, from 'C:\\Users\\Peter\\Desktop\\stuff\\MIUN\\quantitative_research\\video_compression\\videos\\BVI-HD\\RockWater_1920x1080_30fps.mp4':\n  Metadata:\n    major_brand     : isom\n    minor_version   : 512\n    compatible_brands: isomiso2avc1mp41\n    encoder         : Lavf54.28.101\n  Duration: 00:00:05.00, start: 0.000000, bitrate: 245943 kb/s\n  Stream #0:0[0x1](und): Video: h264 (High 4:4:4 Predictive) (avc1 / 0x31637661), yuv420p(progressive), 1920x1080, 245940 kb/s, 30 fps, 30 tbr, 30 tbn (default)\n    Metadata:\n      handler_name    : VideoHandler\n      vendor_id       : [0][0][0][0]\n[out#0/webm @ 0000024324040b00] Codec AVOption b:a (set bitrate (in bits/s)) has not been used for any stream. The most likely reason is either wrong type (e.g. a video option with no video streams) or that it is a private option of some decoder which was not actually used for any stream.\nStream mapping:\n  Stream #0:0 -> #0:0 (h264 (native) -> vp9 (libvpx-vp9))\nPress [q] to stop, [?] for help\n[libvpx-vp9 @ 0000024324914600] v1.15.2-100-g40561f514\nOutput #0, webm, to 'C:\\Users\\Peter\\Desktop\\stuff\\MIUN\\quantitative_research\\video_compression\\compressed_videos\\BVI-HD\\vp9\\2\\RockWater_1920x1080_30fps_vp9.webm':\n  Metadata:\n    major_brand     : isom\n    minor_version   : 512\n    compatible_brands: isomiso2avc1mp41\n    encoder         : Lavf62.3.100\n  Stream #0:0(und): Video: vp9, yuv420p(tv, progressive), 1920x1080, q=2-31, 2000 kb/s, 30 fps, 1k tbn (default)\n    Metadata:\n      encoder         : Lavc62.11.100 libvpx-vp9\n      handler_name    : VideoHandler\n      vendor_id       : [0][0][0][0]\n    Side data:\n      cpb: bitrate max/min/avg: 0/0/0 buffer size: 2000000 vbv_delay: N/A\nframe=    0 fps=0.0 q=0.0 size=       0KiB time=N/A bitrate=N/A speed=N/A elapsed=0:00:00.51    \nframe=    6 fps=5.7 q=60.0 size=       1KiB time=00:00:00.20 bitrate=  25.4kbits/s speed=0.188x elapsed=0:00:01.06    \nframe=   11 fps=6.8 q=42.0 size=       1KiB time=00:00:00.36 bitrate=  13.8kbits/s speed=0.225x elapsed=0:00:01.62    \nframe=   16 fps=7.4 q=61.0 size=       1KiB time=00:00:00.53 bitrate=   9.5kbits/s speed=0.248x elapsed=0:00:02.15    \nframe=   21 fps=7.9 q=39.0 size=       1KiB time=00:00:00.70 bitrate=   7.2kbits/s speed=0.262x elapsed=0:00:02.67    \nframe=   26 fps=8.2 q=62.0 size=       1KiB time=00:00:00.86 bitrate=   5.9kbits/s speed=0.272x elapsed=0:00:03.18    \nframe=   30 fps=8.1 q=60.0 size=       1KiB time=00:00:01.00 bitrate=   5.1kbits/s speed=0.27x elapsed=0:00:03.69    \nframe=   36 fps=8.5 q=59.0 size=       1KiB time=00:00:01.20 bitrate=   4.2kbits/s speed=0.284x elapsed=0:00:04.22    \nframe=   41 fps=8.7 q=46.0 size=       1KiB time=00:00:01.36 bitrate=   3.7kbits/s speed=0.288x elapsed=0:00:04.73    \nframe=   46 fps=8.8 q=58.0 size=       1KiB time=00:00:01.53 bitrate=   3.3kbits/s speed=0.292x elapsed=0:00:05.24    \nframe=   50 fps=8.7 q=58.0 size=       1KiB time=00:00:01.66 bitrate=   3.0kbits/s speed=0.289x elapsed=0:00:05.75    \nframe=   55 fps=8.8 q=61.0 size=       1KiB time=00:00:01.83 bitrate=   2.8kbits/s speed=0.292x elapsed=0:00:06.27    \nframe=   61 fps=9.0 q=61.0 size=       1KiB time=00:00:02.03 bitrate=   2.5kbits/s speed=0.299x elapsed=0:00:06.79    \nframe=   66 fps=9.0 q=57.0 size=       1KiB time=00:00:02.20 bitrate=   2.3kbits/s speed=0.301x elapsed=0:00:07.31    \nframe=   71 fps=9.0 q=55.0 size=       1KiB time=00:00:02.36 bitrate=   2.1kbits/s speed=0.301x elapsed=0:00:07.85    \nframe=   76 fps=9.1 q=56.0 size=       1KiB time=00:00:02.53 bitrate=   2.0kbits/s speed=0.302x elapsed=0:00:08.37    \nframe=   81 fps=9.1 q=58.0 size=       1KiB time=00:00:02.70 bitrate=   1.9kbits/s speed=0.304x elapsed=0:00:08.88    \nframe=   87 fps=9.2 q=61.0 size=       1KiB time=00:00:02.90 bitrate=   1.7kbits/s speed=0.308x elapsed=0:00:09.41    \nframe=   93 fps=9.4 q=60.0 size=       1KiB time=00:00:03.10 bitrate=   1.6kbits/s speed=0.313x elapsed=0:00:09.91    \nframe=   97 fps=9.3 q=56.0 size=       1KiB time=00:00:03.23 bitrate=   1.6kbits/s speed=0.31x elapsed=0:00:10.43    \nframe=  102 fps=9.3 q=58.0 size=       1KiB time=00:00:03.40 bitrate=   1.5kbits/s speed=0.31x elapsed=0:00:10.95    \nframe=  107 fps=9.3 q=59.0 size=       1KiB time=00:00:03.56 bitrate=   1.4kbits/s speed=0.311x elapsed=0:00:11.48    \nframe=  112 fps=9.3 q=59.0 size=       1KiB time=00:00:03.73 bitrate=   1.4kbits/s speed=0.311x elapsed=0:00:12.00    \nframe=  116 fps=9.3 q=59.0 size=       1KiB time=00:00:03.86 bitrate=   1.3kbits/s speed=0.309x elapsed=0:00:12.51    \nframe=  120 fps=9.2 q=60.0 size=       1KiB time=00:00:04.00 bitrate=   1.3kbits/s speed=0.307x elapsed=0:00:13.04    \nframe=  124 fps=9.1 q=62.0 size=       1KiB time=00:00:04.13 bitrate=   1.2kbits/s speed=0.305x elapsed=0:00:13.56    \nframe=  126 fps=8.9 q=61.0 size=       1KiB time=00:00:04.20 bitrate=   1.2kbits/s speed=0.298x elapsed=0:00:14.10    \nframe=  126 fps=8.6 q=61.0 size=       1KiB time=00:00:04.20 bitrate=   1.2kbits/s speed=0.287x elapsed=0:00:14.62    \nframe=  126 fps=8.3 q=61.0 size=       1KiB time=00:00:04.20 bitrate=   1.2kbits/s speed=0.277x elapsed=0:00:15.13    \nframe=  126 fps=8.0 q=61.0 size=       1KiB time=00:00:04.20 bitrate=   1.2kbits/s speed=0.268x elapsed=0:00:15.65    \nframe=  126 fps=7.8 q=61.0 size=       1KiB time=00:00:04.20 bitrate=   1.2kbits/s speed=0.26x elapsed=0:00:16.16    \n[out#0/webm @ 0000024324040b00] video:1290KiB audio:0KiB subtitle:0KiB other streams:0KiB global headers:0KiB muxing overhead: 0.133492%\nframe=  150 fps=9.2 q=59.0 Lsize=    1292KiB time=00:00:05.00 bitrate=2117.1kbits/s speed=0.308x elapsed=0:00:16.23    \n",
  "seconds": 16.391653060913086,
  "probe_out": {}
}